<?xml version="1.0" encoding="UTF-8"?>
<svg id="Calque_2" data-name="Calque 2" xmlns="http://www.w3.org/2000/svg" viewBox="0 0 190.06 48.14">
  <defs>
    <style>
      .cls-1 {
        fill: #e52629;
      }

      .cls-2 {
        fill: #fff;
      }
    </style>
  </defs>
  <g id="Calque_1-2" data-name="Calque 1">
    <g>
      <path class="cls-2" d="M46.35,30.83v-13.62c0-.18.12-.31.31-.31h2.97c.16,0,.29.06.35.2l4.02,10.28,4.02-10.28c.06-.14.2-.2.37-.2h2.97c.18,0,.3.12.3.31v13.62c0,.18-.12.3-.3.3h-2.6c-.18,0-.33-.12-.33-.3v-7.83l-.24.89-2.68,6.99c-.06.16-.2.24-.37.24h-2.28c-.16,0-.3-.08-.37-.24l-2.66-6.99-.26-.89v7.83c0,.18-.12.3-.3.3h-2.6c-.18,0-.31-.12-.31-.3Z"/>
      <path class="cls-2" d="M63.51,30.79l4.71-13.64c.06-.16.22-.24.39-.24h2.76c.16,0,.33.08.39.24l4.71,13.64c.08.2-.02.35-.24.35h-2.72c-.16,0-.29-.06-.35-.24l-.61-1.91h-5.12l-.61,1.91c-.06.18-.18.24-.34.24h-2.7c-.22,0-.34-.14-.26-.35ZM71.64,26.13l-1.65-5.14-1.65,5.14h3.29Z"/>
      <path class="cls-2" d="M78.82,30.83v-11.08h-2.7c-.18,0-.3-.12-.3-.3v-2.24c0-.18.12-.31.3-.31h8.64c.18,0,.33.12.33.31v2.24c0,.18-.14.3-.33.3h-2.7v11.08c0,.18-.12.3-.31.3h-2.6c-.18,0-.33-.12-.33-.3Z"/>
      <path class="cls-2" d="M85.71,24.08c0-4.13,3.29-7.34,7.32-7.34s7.34,3.21,7.34,7.34-3.29,7.32-7.34,7.32-7.32-3.21-7.32-7.32ZM93.03,28.25c2.32,0,4.06-1.81,4.06-4.17s-1.75-4.19-4.06-4.19-4.07,1.79-4.07,4.19,1.77,4.17,4.07,4.17Z"/>
      <path class="cls-2" d="M102.02,29.12c-.1-.12-.1-.29.04-.45l1.36-1.54c.12-.14.28-.2.47-.06.94.91,1.71,1.36,2.79,1.36s1.77-.41,1.77-1.3c0-.83-.61-1.1-1.5-1.5l-1.73-.81c-1.5-.67-2.93-1.75-2.93-3.96,0-2.66,2.01-4.11,4.49-4.11,1.69,0,3.09.67,4.27,1.89.12.12.14.3.02.47l-1.34,1.61c-.1.14-.29.2-.43.1-.91-.77-1.58-1.12-2.42-1.12-.94,0-1.48.47-1.48,1.2,0,.77.57,1.02,1.61,1.5l1.44.65c1.5.71,3.13,1.65,3.13,4.08,0,2.97-2.44,4.25-4.84,4.25-2.26,0-3.86-1.12-4.71-2.26Z"/>
      <path class="cls-2" d="M117.71,30.83v-13.62c0-.18.12-.31.31-.31h2.6c.18,0,.3.12.3.31v13.62c0,.18-.12.3-.3.3h-2.6c-.18,0-.31-.12-.31-.3Z"/>
      <path class="cls-2" d="M123.6,30.83v-13.62c0-.18.12-.31.31-.31h2.97c.16,0,.29.06.35.2l4.02,10.28,4.02-10.28c.06-.14.2-.2.37-.2h2.97c.18,0,.3.12.3.31v13.62c0,.18-.12.3-.3.3h-2.6c-.18,0-.33-.12-.33-.3v-7.83l-.24.89-2.68,6.99c-.06.16-.2.24-.37.24h-2.28c-.16,0-.3-.08-.37-.24l-2.66-6.99-.26-.89v7.83c0,.18-.12.3-.3.3h-2.6c-.18,0-.31-.12-.31-.3Z"/>
      <path class="cls-2" d="M141.58,30.83v-13.62c0-.18.12-.31.31-.31h4.37c3.44,0,5.06,1.91,5.06,4.67s-1.63,4.65-5.06,4.65h-1.46v4.59c0,.18-.12.3-.3.3h-2.6c-.18,0-.31-.12-.31-.3ZM146.17,23.39c1.08,0,2.07-.35,2.07-1.81s-1-1.83-2.07-1.83h-1.38v3.64h1.38Z"/>
      <path class="cls-2" d="M152.98,24.08c0-4.13,3.29-7.34,7.32-7.34s7.34,3.21,7.34,7.34-3.29,7.32-7.34,7.32-7.32-3.21-7.32-7.32ZM160.3,28.25c2.32,0,4.06-1.81,4.06-4.17s-1.75-4.19-4.06-4.19-4.07,1.79-4.07,4.19,1.77,4.17,4.07,4.17Z"/>
      <path class="cls-2" d="M176.75,30.93l-2.91-4.7h-.73v4.59c0,.18-.12.3-.3.3h-2.6c-.18,0-.3-.12-.3-.3v-13.62c0-.18.12-.31.3-.31h4.37c3.43,0,5.06,1.91,5.06,4.67,0,2.01-.87,3.58-2.68,4.27l3.15,4.92c.14.22.04.37-.2.37h-2.79c-.16,0-.28-.06-.37-.2ZM174.49,23.39c1.08,0,2.07-.35,2.07-1.81s-1-1.83-2.07-1.83h-1.38v3.64h1.38Z"/>
      <path class="cls-2" d="M183.8,30.83v-11.08h-2.7c-.18,0-.3-.12-.3-.3v-2.24c0-.18.12-.31.3-.31h8.64c.18,0,.33.12.33.31v2.24c0,.18-.14.3-.33.3h-2.7v11.08c0,.18-.12.3-.31.3h-2.6c-.18,0-.33-.12-.33-.3Z"/>
    </g>
    <g>
      <path class="cls-1" d="M46.35,9.68c0-2.17,1.71-3.79,3.79-3.79,1.06,0,1.94.42,2.6,1.09.07.07.05.15,0,.21l-.84.89c-.06.07-.15.07-.22.02-.41-.36-.91-.59-1.52-.59-1.21,0-2.12.91-2.12,2.17s.91,2.16,2.12,2.16c.61,0,1.11-.23,1.52-.59.07-.05.16-.05.22.02l.84.89c.05.06.07.14,0,.21-.65.67-1.53,1.09-2.6,1.09-2.08,0-3.79-1.62-3.79-3.78Z"/>
      <path class="cls-1" d="M53.35,9.68c0-2.13,1.7-3.79,3.78-3.79s3.79,1.66,3.79,3.79-1.7,3.78-3.79,3.78-3.78-1.66-3.78-3.78ZM57.14,11.84c1.2,0,2.1-.94,2.1-2.16s-.9-2.17-2.1-2.17-2.1.92-2.1,2.17.91,2.16,2.1,2.16Z"/>
      <path class="cls-1" d="M66.2,13.22l-2.44-4.55v4.5c0,.09-.06.16-.16.16h-1.35c-.09,0-.16-.06-.16-.16v-7.04c0-.09.06-.16.16-.16h1.57c.08,0,.15.03.19.11l2.44,4.55v-4.5c0-.09.06-.16.16-.16h1.35c.09,0,.16.06.16.16v7.04c0,.09-.06.16-.16.16h-1.57c-.08,0-.15-.03-.19-.11Z"/>
      <path class="cls-1" d="M69.29,9.68c0-2.17,1.71-3.79,3.79-3.79,1.06,0,1.94.42,2.6,1.09.07.07.05.15,0,.21l-.84.89c-.06.07-.15.07-.22.02-.41-.36-.91-.59-1.52-.59-1.21,0-2.12.91-2.12,2.17s.91,2.16,2.12,2.16c.61,0,1.11-.23,1.52-.59.07-.05.16-.05.22.02l.84.89c.05.06.07.14,0,.21-.65.67-1.53,1.09-2.6,1.09-2.08,0-3.79-1.62-3.79-3.78Z"/>
      <path class="cls-1" d="M76.85,13.17v-7.04c0-.09.06-.16.16-.16h3.79c.09,0,.16.06.16.16v1.16c0,.09-.06.16-.16.16h-2.29v1.44h2.15c.09,0,.16.06.16.16v1.16c0,.09-.06.16-.16.16h-2.15v1.5h2.28c.09,0,.17.06.17.16v1.16c0,.09-.07.16-.17.16h-3.78c-.09,0-.16-.06-.16-.16Z"/>
      <path class="cls-1" d="M82.02,12.29c-.05-.06-.05-.15.02-.23l.7-.8c.06-.07.15-.11.24-.03.48.47.88.7,1.44.7s.91-.21.91-.67c0-.43-.32-.57-.78-.78l-.89-.42c-.78-.35-1.51-.9-1.51-2.05,0-1.38,1.04-2.12,2.32-2.12.87,0,1.6.35,2.21.98.06.06.07.16.01.24l-.69.83c-.05.07-.15.11-.22.05-.47-.4-.82-.58-1.25-.58-.48,0-.77.24-.77.62,0,.4.29.53.83.78l.75.34c.78.37,1.62.85,1.62,2.11,0,1.53-1.26,2.2-2.5,2.2-1.17,0-2-.58-2.44-1.17Z"/>
      <path class="cls-1" d="M87.89,12.29c-.05-.06-.05-.15.02-.23l.7-.8c.06-.07.15-.11.24-.03.48.47.88.7,1.44.7s.91-.21.91-.67c0-.43-.32-.57-.78-.78l-.89-.42c-.78-.35-1.51-.9-1.51-2.05,0-1.38,1.04-2.12,2.32-2.12.87,0,1.6.35,2.21.98.06.06.07.16.01.24l-.69.83c-.05.07-.15.11-.22.05-.47-.4-.82-.58-1.25-.58-.48,0-.77.24-.77.62,0,.4.29.53.83.78l.75.34c.78.37,1.62.85,1.62,2.11,0,1.53-1.26,2.2-2.5,2.2-1.17,0-2-.58-2.44-1.17Z"/>
      <path class="cls-1" d="M93.97,13.17v-7.04c0-.09.06-.16.16-.16h1.35c.09,0,.16.06.16.16v7.04c0,.09-.06.16-.16.16h-1.35c-.09,0-.16-.06-.16-.16Z"/>
      <path class="cls-1" d="M96.81,9.68c0-2.13,1.7-3.79,3.78-3.79s3.79,1.66,3.79,3.79-1.7,3.78-3.79,3.78-3.78-1.66-3.78-3.78ZM100.59,11.84c1.2,0,2.1-.94,2.1-2.16s-.9-2.17-2.1-2.17-2.1.92-2.1,2.17.91,2.16,2.1,2.16Z"/>
      <path class="cls-1" d="M109.65,13.22l-2.44-4.55v4.5c0,.09-.06.16-.16.16h-1.35c-.09,0-.16-.06-.16-.16v-7.04c0-.09.06-.16.16-.16h1.57c.08,0,.15.03.19.11l2.44,4.55v-4.5c0-.09.06-.16.16-.16h1.35c.09,0,.16.06.16.16v7.04c0,.09-.06.16-.16.16h-1.57c-.08,0-.15-.03-.19-.11Z"/>
    </g>
    <g>
      <path class="cls-1" d="M152.11,41.87v-7.04c0-.09.06-.16.16-.16h2.55c1.31,0,2.04.85,2.04,1.87,0,.79-.47,1.3-.95,1.53.71.19,1.43.79,1.43,1.86,0,1.24-.85,2.09-2.63,2.09h-2.45c-.09,0-.16-.06-.16-.16ZM154.47,37.55c.5,0,.82-.2.82-.74,0-.5-.32-.68-.82-.68h-.73v1.42h.73ZM154.61,40.57c.62,0,1.04-.26,1.04-.87s-.42-.85-1.04-.85h-.86v1.72h.86Z"/>
      <path class="cls-1" d="M159.53,41.87v-3.23l-2.14-3.78c-.06-.12-.02-.19.11-.19h1.4c.08,0,.15.03.19.11l1.28,2.35,1.28-2.35c.04-.07.12-.11.2-.11h1.4c.13,0,.17.07.11.19l-2.14,3.79v3.22c0,.09-.07.16-.17.16h-1.35c-.09,0-.16-.06-.16-.16Z"/>
      <path class="cls-1" d="M166.23,41.35c-.06-.07-.06-.19-.01-.26l.7-.94c.05-.06.16-.07.23-.01.19.15.48.4,1.01.4.63,0,1.07-.36,1.07-1.31v-4.39c0-.09.07-.16.17-.16h1.35c.09,0,.16.06.16.16v4.31c0,2.05-1.14,3.03-2.68,3.03-.98,0-1.64-.4-2-.82Z"/>
      <path class="cls-1" d="M172.29,41.87v-7.04c0-.09.06-.16.16-.16h3.79c.09,0,.16.06.16.16v1.16c0,.09-.06.16-.16.16h-2.29v1.44h2.16c.09,0,.16.06.16.16v1.16c0,.09-.06.16-.16.16h-2.16v1.5h2.28c.09,0,.17.06.17.16v1.16c0,.09-.07.16-.17.16h-3.78c-.09,0-.16-.06-.16-.16Z"/>
      <path class="cls-1" d="M177.67,41.87v-7.04c0-.09.06-.16.16-.16h3.75c.09,0,.16.06.16.16v1.16c0,.09-.06.16-.16.16h-2.25v1.39h2.11c.09,0,.16.06.16.16v1.16c0,.09-.06.16-.16.16h-2.11v2.87c0,.09-.06.16-.16.16h-1.35c-.09,0-.16-.06-.16-.16Z"/>
      <path class="cls-1" d="M182.97,41.87v-7.04c0-.09.06-.16.16-.16h3.75c.09,0,.16.06.16.16v1.16c0,.09-.06.16-.16.16h-2.25v1.39h2.11c.09,0,.16.06.16.16v1.16c0,.09-.06.16-.16.16h-2.11v2.87c0,.09-.06.16-.16.16h-1.35c-.09,0-.16-.06-.16-.16Z"/>
    </g>
    <path class="cls-1" d="M27.66,37.02c-.13.41.48.65.7.28,3.66-5.98,6.82-14.24,6.38-22.86C34.31,6,30.2.05,24.54.04c-1,0-1.97.18-2.88.54-.43.17-.92.16-1.35-.02-.84-.35-1.72-.53-2.65-.53-1.17,0-2.3.28-3.35.82-.58.3-1.27.28-1.84-.04C11.52.28,10.5,0,9.43,0,5.23-.01,1.61,4.19.01,10.8c-.1.4.53.57.69.19,1.6-4.01,3.79-6.48,6.19-6.47,4.88.01,8.96,9.1,8.33,22.52-.29,6.17-1,13.94-2.74,20.67-.11.42.54.62.73.22,3.68-7.69,6.86-18.33,6.42-29.44-.19-4.81-1.11-8.99-2.56-12.16-.4-.86.76-1.6,1.5-.95,3.18,2.78,5.37,9.44,4.9,18.23-.29,5.36-.99,12.11-2.71,17.96-.12.41.51.63.71.25,3.67-6.71,6.84-15.98,6.4-25.67-.19-4.18-1.1-7.81-2.54-10.56-.18-.34.3-.65.59-.39,2.93,2.68,4.89,8.41,4.44,15.87-.28,4.76-.98,10.74-2.68,15.94Z"/>
  </g>
</svg>