<?xml version="1.0" encoding="UTF-8"?>
<svg id="Layer_1" xmlns="http://www.w3.org/2000/svg" version="1.1" viewBox="0 0 226.8 226.8">
  <!-- Generator: Adobe Illustrator 30.4.0, SVG Export Plug-In . SVG Version: 2.1.3 Build 187)  -->
  <defs>
    <style>
      .st0 {
        fill-rule: evenodd;
      }

      .st0, .st1 {
        fill: #fff;
      }
    </style>
  </defs>
  <g>
    <g>
      <path class="st0" d="M277.6,137.1c1.4,0,.9.9.9.9v21.4c-1.9,7-8.8,6-8.8,6-1.2,0-1.2-.5-1.2-.5v-26.6c0-1.5,1.3-1.2,1.3-1.2h7.7ZM260.6,152.5h-6.7s-.9,0-.9.9v5.5s.5,5,6.7,6.7h4.4s.5.2.8-.8v-6.2s0-.6-.6-.6h-1.5s-1.2-.6-1.2-2.5v-2.3s.2-.7-1-.7Z"/>
      <path class="st0" d="M297.2,142.6c0,1.4-.7,1.6-.7,1.6-4.6-.9-3.8,9.3-3.8,9.3,0,5,3.1,4.9,3.1,4.9,1.1,0,1.2,1.1,1.2,1.1v4.6c0,1.8-.7,1.5-.7,1.5-12.4,0-12.9-4.7-12.9-4.7-3.1-11.2,0-18.5,0-18.5,0-5.8,13.5-5.2,13.5-5.2l.3,5.5ZM300.8,165.5s13.5.6,13.5-5.2c0,0,3.1-7.3,0-18.5,0,0-.5-4.7-12.9-4.7,0,0-.7-.4-.7,1.5v4.6s0,1.1,1.2,1.1c0,0,3.1,0,3.1,4.9,0,0,.9,10.2-3.8,9.3,0,0-.7.2-.7,1.6l.3,5.5Z"/>
      <path class="st0" d="M320.1,137.1s-1.1-.4-1.1,1.1v20.7s.4,5.6,6.3,6.3h3.5v-9.6s0-.9,1.3-1.3h9.4s.9,0,.9.9v2.5s0,.9-.9.9h-5.5s-1.2-.8-1.2,1.2v5.1s0,.9.9.9h6.9s8.9-.3,9.5-6.2c0,0,1.7-5.5-2.8-8.8,0,0,3.1-1.3,1.7-8.9,0,0-.5-4.5-9.2-4.5h-6.4s-.4.1-.4.8v5.4s-.1,1,.9,1h4.8s.8,0,.8.8v1.9s.3.6-.6.6h-8.9s-1.2.9-1.2-1.2v-8.7s.6-.6-.6-.6h-8.2Z"/>
      <g>
        <path class="st0" d="M354.7,137.1s-1.2-.7-1.2,1.2v20.8s2.5,6.5,6.5,6.5h3.1s.5.3.5-1.5v-8.6s-.2-1.5,1.5-1.5h14.5s1.2.8,1.2-1.2v-4.3s0-.8-1.8-.8h-13.1s-2.3,1.1-2.3-2.3v-6.6s1.1-1.6-1.6-1.6h-7.3Z"/>
        <path class="st0" d="M380.9,142.6v-4.4s.5-1.2-1.4-1.2h-10.4s-1.2-.5-1.2,2.5v3.6s-.2,1.1,1.1,1.1h10.8s.7.3,1.2-1.7Z"/>
        <path class="st0" d="M380.9,163.9v-4.4s.5-1.2-1.4-1.2h-10.4s-1.2-.5-1.2,2.5v3.6s-.2,1.1,1.1,1.1h10.8s.7.3,1.2-1.7Z"/>
      </g>
    </g>
    <polygon class="st0" points="287.3 87.4 309.9 87.4 316.8 65.6 324.3 87.4 346.5 87.4 328.3 100.9 335.4 122.4 317.1 109.2 298.8 122.1 316.8 97.4 287.3 87.4"/>
    <polyline class="st0" points="281.6 89.1 299.8 102.4 293 123.7 311.2 98.8 281.9 88.7"/>
    <path class="st0" d="M312.8,61.5l-7,20.6h-29.4s-1.4-24,36.5-20.6Z"/>
    <path class="st0" d="M321.3,61.5l6.5,20.6h29.3s7.6-22.9-35.9-20.6Z"/>
    <path class="st0" d="M275.4,91.3s-2.8,31.9,10.7,36.6l7.4-23.3-18.1-13.3Z"/>
    <path class="st0" d="M316.8,115.6l-20,14.7s22.1,4.6,40.8,0l-20.9-14.7Z"/>
    <path class="st0" d="M357.6,85.7s4.2,44.7-13.7,43.6l-8.8-26.8,22.4-16.8Z"/>
  </g>
  <path class="st1" d="M257.9,344.4c-1.8-2.2-2.9-5.9-4.1-8.6-1.7-3.8,6.4-11,.6-13,.2-.6.4-1.8-.1-2.9h-19.5s-3.1-2-3.1-2c.5,0,1.2,0,1.5,0,.5-.1.7-1.1.4-1.4-.2-.3-1-.4-1.6-.8-27.2-16.4-57-21.9-88.3-24.1-9.3-.7-17.9-.6-27.2,0-26.2,1.7-51.6,6-75.4,17-23.3,10.8-48.1,31.2-38.3,56.7,1.3,3.5,2.9,7.4,5.6,9.2.2.5.2,1.6.6,2.1.6.8,1.6,1.1,2.5,1,.1,2-1.6,1.8-2.2,2.6-.7-.5-1.7-.8-2.1-.6v-.9c.2-1-.7-1.9-1.7-2.1v-1c-.1-5-6.9-8.3-5.9-25.8,0-.3,0-.8,0-1,1.5-1.8,1.3-4.8.6-7-.7,1.2-1,1.7-1.7,2-.3-2.9,2.3-4.8,2.9-8.8-5.2,4.3-8.6,10.7-11.2,17.3-.8,1.9-.4,3.9-.9,5.4-2.1,7.9,1.3,16.7,6.1,23.1,1.7,2.3,2.7,5.1,5.3,6.7.9.6,1.7,1.9,3.1,2.1-.6,1.1-1.1,2.5-2.4,3.4,1.8,1.9,3.4,1.3,5,1.5-.7,2.8,4.4,3.7,10.2,4,2.6,3.3,7,4.9,10.8,6.7-.2,1.9,1.1,2.5,2.9,3.3,19,9,39.3,13.6,60.1,16.4,3.8.5,7.2.3,10.6.4h1c.1.7.9,1.1,1.9,1.1h35c1.1,0,1.8-.4,2-1h6.9c1.9.1,3.7-.7,5-.8,5.6-.1,23.6-3.7,26.8-5.4,1.7.4,3.9.6,5.1-.8h1c.8,0,1.7-.2,2-1h1c.8,0,1.7-.2,2-1,5.9-.7,11.2-3.5,16.9-5.9,2.7-1.2,6-1.4,7-4.3,2,.2,3.4-.8,5.1-1.6,1-.5,2.6-.4,2.9-2.1h1c1,0,1.7-1.1,2-2,.3,0,.8,0,1,0,2.8-1.1,5.4-3.3,6.9-6h1.1c2.6-1.9,5-4.3,7-6.9v-1.1c.5-.2,1.1-.4,1.5-.9.5-.6,0-1.5-.6-2.2,2.5-3,6-5.6,6-9.7v-1.1s1,0,1,0c-.2,1.1,1,1.2,1,0,.8,0,1.8-.3,2.6-.6,5.4,6,11.5-19,4.7-27.5ZM29.5,331.8c0,.8-.4,1.5-.9,2.1-.2-.8.1-1.8.9-2.1ZM18.4,373.5c-2.8-.6-5,.8-5.8,3-1.8-.2-.8-2.4-.6-3.3-2.1-10.1,0-21.7,6.6-30.4,1.9-1.1,3.7-2.8,3.9-5.1,1.4-1.7,2.6-3.5,5.2-2.8-3.2,3.6-5.8,8.4-5.9,13.7-.1,4.7,2.9,7.7,5.6,10.2,1.5,1.4,2.3,2,4.1,3,4.3,4.8,10.6,7.2,17.4,8.2-1,2.5-2.3,3.5-3.5,4.5-8.7,1.8-17.6,1.5-26.8-.9ZM194,402.5c-14.2,5.2-29,8.6-44,10.7l-6.9,1c-3.9.5-7.3.9-11.1.9h-22.8c-5.2,0-10.1-1.4-14.9-.7-.8-1.4-2.6-1-4-1.1l-6.7-.6c-15.2-2.9-30.4-6.6-44.4-13.2l1.2-.2c1.1,0,2.2-.2,3-1h5s2-1.1,2-1.1c1.4.6,3-.3,4.1-.8.7-.4,2.4.2,2.9-1.1h1c.8,0,1.7-.2,2-1h1c.8,0,1.7-.2,2-1,.3,0,.7,0,1,0,.5-.1.9-.5,1-1h1c.4-.2.8-.6,1-.9l7.9-4.3c.5,3.6-3.5,7.8-1.4,8.1.8.1,1.6,0,2.4,0h1.1c.4.3.7.7,1,1.1.3.5.9,1,2,1h52.8c.7,0,1.1-.6,1.1-1h2s3,0,3,0c.8,0,1.7-.2,2.1-1.1,9.8-2.3,16.9-5.1,23.3-13.4,2.6-3.3,4.2-5.5,3.7-10.6-.2-2,.3-5.1-2.3-5.6,0-.6-.7-1.6-1.1-2.1.1-2-1.9-3.8-3.8-4.8,6.6-2.8,11-8,16.5-12.5,3.7-3,9.8-1.1,13.8-1.5-1.2,2.8-2.7,5.9-3.3,8.9-.4,0-1,.6-1,1,0,.6.2,1.4,0,1.8-2.7,4.6-4.9,9.8-5.8,15-2.8,3.3-3.8,8-5.2,12.1-1.9,3.6-3.6,7.3-5,11.5l4.2.2c.2,1.5,1.5,3,3,3h7s3-.9,3-.9l16.1.2c-3.2,1.9-6.5,3.6-10.1,4.9ZM59.1,346l.3-1.3c.9-.3,1.7-1,2-2h1.1c7.8-2.4,16.8-.4,25,.7,5.5.8,6.9-11.1,11.9-14.6l-9.3,24.7-4.8,11.6c-1.4-1.3-2.3-3.3-4.2-3.2-.5-2.7-2-3.8-3.6-5.4-1.6-1.7-3.1-2.2-5.8-3.7l-12.6-6.9ZM132.6,365.4c.1.2.2.3.2.5-.2,3.2-1,6.7-3.8,8.7-3.4,2.5-7.8,3.1-11.8,3.1l4.5-9.7c1.6-3.4,8-1.3,11-2.6ZM128.7,349.1l.4-3.5c2.5.1,2.8-3.3,4.2-4.6,2.7-2.5,7-1,9.6-1.2,0,7.4-8.1,10.7-14.2,9.3ZM187.2,319.9c-2.9,4.1-5.1,8.1-9.1,11-2-6.3-7.6-10.7-14.4-10.7l-60.2-.4c-1.2,2.9-1.6,5.4-3.3,7-.4-.8-.9-1.9-.9-2.9,0-.7,0-1.6-.3-2.3-.4-.8-1.5-1.3-3-1.6-17.3-3.9-35.6-2.3-52.2,4.2-2.7,1-4.6,3.1-7.3,2.7,8.8-6.2,18.6-10.4,28.9-13.9.6-.2,1.7,0,2-1h1c1.8,0,3.7-.6,5-2h1c1.1,0,2.4,0,3-1h1c1.1,0,2.4,0,3-1h1c1.1,0,2.4,0,3-1.1h3c1.3,0,2.7-1.1,3.7-1.4,2.4.7,5.8-.1,8.2-.6l4.1-.9c2.2-.5,5,.6,6.9-1,.2-.1.8,0,1,0h7.9s25.9,0,25.9,0l7.9.2c1.6,0,3.2,1.2,5.1.8.7-.2,2.3-.3,2.9,0,1.3.6,2.6.7,4,.9,15.6,2,35.7,7.1,48.9,14.9h-27.8ZM236.7,371.5c-1.8,3.1-4.6,6.3-7.2,9-4.4,4.6-9.1,8.4-14.9,11.6-.5.3-.8,1.4-1,1.6-1.5.2-4.5.9-5.5,1.9.3-1.2.6-2.2.8-3.2.8-.8,1-1.9,1-3,.5-.1.9-.5,1-1,0-.3,0-.7,0-1,1.1-.6,1.2-1.9.9-3.1,1.2-2.1,2.8-4.4,3-6.9,1.1-1.1,1.6-2.6,2-4,0-.3,0-.7,0-1,.8-.4,1.1-1.2,1-2,2-4.2,3.8-8.5,5.1-12.9.4-.1.8-.5.9-1,0-.3,0-.7,0-1,1.1-.6,1.2-1.9,1-3,2.4-2.1.9-7,5-7h11.1c2.2,8.6.4,18-4.2,25.8Z"/>
  <path class="st0" d="M209.6,479.6c-5.8-5.6-12.5-8.7-20.6-9.4l-1.7-.2h0c0-.1-1.4-.1-1.4-.1l-1.6-.2h-56.2v.2h-.1l-1.9,4.9-21.8,54.1c-.2.1-.5.2-.9.3-13.3,4.9-66.1,22.2-73.3,42-5.5,15,18.3,19.8,33.7,22.3,39.6,6.3,81,4.8,122.7-.6,19.9-2.6,44.9-6.3,58.3-7.2,11.9-.8,47.4-.7,71.1-.8,1.9,0,2.2,0,2.8-.7,1.5-1.5,2.2-1.5,3.4.3.4.6.6.7,2.5.7h22.9s1.5-3.1,2.4-4.4c1-1.4,2.6,0,4.7,2.7,1.2,1.5,1.5,1.7,3.4,1.7h34.5c1.9,0,2.3,0,3.8-.1,4.5-.3,7.6-2.9,8.8-5.2,1.7-3.1,7-20.9,6.4-21.4-.9-.8-2.9.3-2.6-1.7.3-2.7,6.2-8.7,7.6-12.3,0,0,0-.2,0-.2h1.1l-.9-5.8c1.9-1.9,11.5-5.9,18.2-9.6,13.4-7.5,25.6-21.5,16.7-29.6-5.7-5.1-17.1-8.3-26.4-10-5.8-1-14-2.3-16.2-2.6l-2.6-17.2h-90.9v.2h-.1l-16.2,19.3-.6-9.6v-9.7h-.6v-.2h-85.2c-.8,3.4-1.6,6.3-2.6,9.5-.2.2-.3.3-.5.3ZM105.7,544.4h11.2c0,.5-.1,1.2-.3,1.7-.1.5-.3.8-.6,1.1-3.9,5.7-13,28.7-13,28.7,0,0-2.9.1-5.2,0-8.5-.5-17.9-5.3-16.6-11.5,1.2-6.1,16.7-17,24.5-19.9ZM163.7,544.4h23.1l-20.5,31.9-5.4-6.2s2.4-1.1,4.1-2.1c5.2-3.1,8.5-10.9,7-15.9-.6-1.9-1.7-4-3.5-5.2-1.3-.8-3.3-1.8-4.8-2.5ZM214.6,544.4h20.7v.2c0,.4-.2.5-1.6,1.1-4.1,1.6-6.8,4.8-7.7,7.6-1,3-2.4,7.9-3.8,9.7-.7.9-1.7,1.7-1.7,1.7l-5.8-20.3ZM326.7,544.3h6.4c0,.2,0,.5,0,.8,0,1.2-1.8,4.7-2.7,5-1.6.6-3.2-2.8-3.5-4.6,0-.5-.1-.9-.2-1.3ZM347.6,541.9c.8-.8,1.6-1.7,2.3-2.6.5-.5,1-.9,1.5-1.3h12.5s0,0,0,0v6.3h1.9c0,.2.1.3,0,.4-.2.5-2.4-.3-4.4-.8-5.9-1.4-14.8.6-14.9-.6,0-.1.4-.8,1-1.6ZM415.1,529.1l-5.5-36.9c3.5.5,14.5,1.9,20.6,3.2,11.9,2.4,16,8.5,11.4,16.1-1.4,2.2-6.1,6.6-9.1,8.5-5.7,3.5-15,7.9-17.5,9.1ZM258,543.7h-20l11.7-36.3h1.6l6.8,36.3ZM251.5,560.1h17.2s0,1.1,0,1.9c-.2,1.7-1.3,2.8-1.8,3.1-1.4.9-15.4,2.8-18.2,2.6-.7,0-.7-.4,0-1.9.9-1.9,2.7-5.7,2.7-5.7ZM216.1,474s-3.2,12.8-5.1,14.6c-1.1,1.1-1.5-1.5-2.6-3.5-3.4-6.5-11.7-9.1-20.1-10.7-1.9-.4-2.3-.4-4.2-.4h-53.1l-26.7,66.2h42.2v-1.4l4.7-10.3,4.5,11.7h77.7l18.9-53.3s.7,0,1.1.3c.8.5.5,1.6.3,3-.5,3.5,10.2,50,10.2,50h75.9c1.9,0,2.2,0,2.8-.2,1.7-.5,3-2.2,4.6-4.5,1.1-1.6,1.4-1.7,3.3-1.7h17.5v6.4h44.2l-9.8-66.2h-85.1l-22,27-1.6-27h-77.8ZM291.3,511.5l28.1-34h34.9l-55.6,58.6h-32l-11.6-58.6h34.6s-.2,6.2,0,12.6c.3,10.4,1.6,21.3,1.6,21.3ZM230.8,536.1h-33.7l22.8-58.6,31.4.6s-1.1,2-2.2,4.1c-3.6,6.9-18.2,53.9-18.2,53.9ZM369.5,529.5c-.8-.4-1.1-.4-3-.4h-20.5l-4.9,7h-36.3l54.8-58.6h38l8.6,58.6h-35.1s.5-4,0-5.5c-.3-.9-1-.9-1.6-1.1ZM177.6,513.9l14.3,22.2h-33l-7.4-17.6-7.9,17.6h-32.7l23.2-58.6s46.6-.2,54.9,1.2c4.8.8,12.4,3.4,14.9,7,7.1,10-1,19.4-12,23.4-5.3,1.9-14.3,4.8-14.3,4.8ZM194.1,532.5s-3.7-7.2-7.8-12.8c-1.3-1.9-2.7-3.5-2.7-3.5,0,0,5.9-1.4,11.3-3.8,4.8-2.1,9.2-4.9,9.2-4.9l-10,25ZM165,502.1c1.9,0,2.2,0,3.2-.4,1.7-.6,3.4-2.2,4.1-3.1,1.7-2.7,1.1-6.5-2.9-7.8-1-.3-1.3-.4-3.2-.4h-5.7s-3.2,4.9-3.7,8.9c-.2,1.5,0,2.8,0,2.8h8.2ZM168.3,494.5s.1,1.3,0,2c0,.4-1,1.1-1.9,1.3-.6.2-.8.2-2,.2h-2.6l.6-3.5h5.9ZM370.9,498l-12.6,12.6v1.4h14.1v-14.1h-1.4ZM166.2,581.8s-9.9-9.8-11.1-12.6c-.6-1.4,1.3-1.3,4.1-2.3,4-1.3,5.9-3.6,7.6-6.4,2.2-3.8,3.4-9.6-2.6-11.6-1-.3-1.3-.4-3.2-.4l-41-.6-15.2,34h24.7s2.9-7.9,4.3-10c.4-.6,1-.5,1.7.3,1.9,2.4,6.5,9.7,6.5,9.7h24.2ZM142.4,562.5h-5.5c0-.1,1.3-4.2,1.3-4.2h6c2.7.3,1.8,4.1-1.7,4.2ZM201.3,577.8v3.9h19.3l-8.8-34h-22.4l-22.6,34h21.4s1.8-3.9,1.8-3.9h11.3ZM193,570s4.7-6.1,5.1-6.1h.9v6.1h-6ZM252.5,556.1c1.2-.1,1.5-.1,3.4-.1h14l2.9-7.6-31.3-.5c-1.9,0-2.2,0-3.1.1-.7.1-1.3.4-1.9.7-4.5,2-4.8,1.8-6.3,4.8-3.1,6.2-8.8,19.6-8.7,21.2,0,1.2,3.1,5,5,6.2.4.3.8.5,1.3.7.6.2.9.2,2.8.2h28.8l4.2-10s-12.6,1-17,0c-1.1-.2-2.6-1.1-3.1-2.1-.9-1.8,3.5-9.1,5-11.3.8-1.2,1.7-2,4-2.2ZM288.8,581.8l13.6-34h-23.6l-14.7,34h24.6ZM335.8,547.8l-6.1,13-6-13h-16.7l-13.6,34h21.9l4.4-11.9,5.1,11.9h20.3l13.2-34h-22.5ZM386.9,568.9s0,1.1,0,1.9c0,1.3-.6,2.1-1.6,2.2-5.9.9-12.1.4-11.6-2.4.6-3.8,5.3-14,5.3-14h25.6c0-.1,5.4-8.8,5.4-8.8h-37.7c-1.9,0-2.3,0-4.2.5-3.8.9-6.2,2.6-7.4,4.2-1.6,2.2-7.1,16.3-7.9,20.3-.4,2.2.8,7.5,4.8,8.8.6.2.9.2,2.8.2h38.5c0,.1,8.1-19.3,8.1-19.3h-22.7l-2.8,6.4h5.3Z"/>
  <path class="st1" d="M38.5-160.8h12.7c18.6.5,50.4,10.2,32.5,23.4h57.8c0-7.3-9-20.6-31.8-24.1,22.9-3.5,31.8-16.5,31.8-23.9h-57.8c15.1,14.2-20.7,22.7-32.5,22.9h-12.7v-22.9H-5.6v48h44.1v-23.4h0ZM342.2-143.9c2.1,0,5-.7,5-3.1-.1-6.8-21.1-.9-21.1-14.1,0-8,8.3-10.6,15.4-10.6s16.1,1,16.9,10.1h-11.9c-.1-1.1-.6-1.9-1.3-2.5-.7-.6-2-.8-3.1-.8-2.3,0-3.8.7-3.8,2.4,0,4.8,21.2-.3,21.2,14.2,0,6.7-5.3,11.6-17.7,11.6-7.3,0-15.6-2.5-15.6-11.9h11.2c.3,1.9,1.4,4.4,4.9,4.7h0ZM436-137.2v-33.2h12.6v33.2h-12.6ZM436-183.9h12.6v8.6h-12.6v-8.6ZM264.1-153.7l4.9,16.2h12.4l11.4-33.7h-13.2l-5.2,17.3h.2l-5.3-17.3h-11l-5.3,17.3h-.1l-5.2-17.3h-13.2l11.4,33.7h13.2l4.9-16.2h.2ZM156.5-183.9v46.4h13.4v-13.7l4.5-4.8,12.2,18.5h16.5l-18.8-28.2,17-18.2h-17.7l-13.7,14.4v-14.4h-13.4ZM411.1-146.6v9.5h-12.9v-47h12.9v23.1l8.1-9.4h13.8l-11.1,12.4,12.9,20.8h-14.3l-7-11.4-2.4,2h0Z"/>
  <path class="st1" d="M235.9-142.2v-16c0-7.6-2.7-13.3-16.2-13.2-12.1,0-16.5,4.3-17.3,11.4h11.6c.7-3.6,4-4.2,5.9-4.2s4.1.3,4.1,2.8c0,6.4-22.5,2-22.7,14.6,0,7.1,4.7,10.1,11.1,10.1s8.3-.7,11.8-3l1.5,2.5h10.7v-.4c-.7-1.2-.6-3.2-.6-4.6h0ZM218.1-144.1c-2.7.3-4.6-.7-4.6-2.4h0c0-4.5,5.5-3.9,9.9-6.1.3,4.7-.7,8-5.3,8.5ZM395.8-142.2v-16c0-7.6-2.7-13.3-16.2-13.2-12.1,0-16.5,4.3-17.3,11.4h11.6c.7-3.6,4-4.2,5.9-4.2s4.1.3,4.1,2.8c0,6.4-22.5,2-22.7,14.6,0,7.1,4.7,10.1,11.1,10.1s8.3-.7,11.8-3l1.5,2.5h10.7v-.4c-.7-1.2-.6-3.2-.6-4.6ZM378-144.1c-2.7.3-4.6-.7-4.6-2.4h0c0-4.5,5.5-3.9,9.9-6.1.3,4.7-.7,8-5.3,8.5ZM324.5-142.2v-16c0-7.6-2.7-13.3-16.2-13.2-12.1,0-16.5,4.3-17.3,11.4h11.6c.7-3.6,4-4.2,5.9-4.2s4.1.3,4.1,2.8c0,6.4-22.5,2-22.7,14.6,0,7.1,4.7,10.1,11.1,10.1s8.3-.7,11.8-3l1.5,2.5h10.7v-.4c-.7-1.2-.6-3.2-.6-4.6h0ZM306.6-144.1c-2.7.3-4.6-.7-4.6-2.4h0c0-4.5,5.5-3.9,9.9-6.1.3,4.7-.7,8-5.3,8.5Z"/>
  <path class="st0" d="M588.3,273.3c-1.9,0-3.4,1.4-3.4,3.3s1.5,3.4,3.4,3.4,3.3-1.4,3.3-3.4-1.5-3.3-3.3-3.3ZM588.3,279.5c-1.6,0-2.7-1.2-2.7-2.8s1.1-2.7,2.7-2.7,2.7,1.2,2.7,2.7-1.2,2.8-2.7,2.8Z"/>
  <path class="st0" d="M588.8,277c.6,0,1-.4,1-1.1h0c0-.7-.4-1.1-1.4-1.1h-1.4v3.9h.6v-1.7h.6l1.1,1.7h.6l-1.1-1.7ZM587.6,276.5v-1.2h.8c.4,0,.8.1.8.6s-.4.6-.9.6h-.7Z"/>
  <g>
    <path class="st1" d="M367.5,275.7h-29.6c-4.5,0-8.2,3.6-8.2,8v17c0,4.5,3.6,8.2,8.1,8.2,0,0,0,0,0,0h29.6c1.1,0,1.9-.8,1.9-1.9v-5.8c0-1.1-.8-1.9-1.9-1.9h-23.1c-1,0-1.8-.7-1.8-1.7s.8-1.7,1.8-1.7h23.1c1,0,1.9-.8,1.9-1.8v-3.5c0-1-.9-1.8-1.9-1.8h-23.1c-1,0-1.8-.8-1.8-1.7s.8-1.7,1.8-1.7h23.1c1.1,0,1.9-.8,1.9-1.9v-5.6c0-1.1-.8-1.9-1.9-1.9Z"/>
    <path class="st1" d="M527,275.6h-26.1c-4.5,0-8.2,3.6-8.2,8v17c0,4.5,3.6,8.2,8.1,8.2,0,0,0,0,0,0h26.1c4.5,0,8.2-3.6,8.2-8.1,0,0,0,0,0,0v-17c0-4.3-3.6-8-8.2-8ZM519.8,297.5c0,.9-.7,1.6-1.6,1.6h-8.6c-.9,0-1.6-.7-1.6-1.6,0,0,0,0,0,0v-10.8c0-.9.7-1.6,1.6-1.6h8.6c.9,0,1.6.7,1.6,1.6v10.8Z"/>
  </g>
  <path class="st0" d="M575,275.6h-26.2c-4.4,0-8.1,3.6-8.1,8v17c0,4.5,3.6,8.2,8.1,8.2h26.2c4.4,0,8.1-3.6,8.1-8.2v-17c0-4.3-3.6-8-8.1-8ZM567.8,297.5c0,.9-.7,1.6-1.6,1.6h-8.5c-.9,0-1.6-.7-1.6-1.6,0,0,0,0,0,0v-10.8c0-.9.7-1.6,1.6-1.6h8.5c.9,0,1.6.7,1.6,1.6v10.8Z"/>
  <path class="st0" d="M478.2,275.6h-13.3c-1.2,0-2.7.6-3.4,1.5l-15.6,17.5c-.9,1-.7,2.6.8,2.6h12.3c.9-.1,1.9-.3,2.5-1.1l8.9-10c1.1-1.3,2.6-.5,2.6.4v11c0,.9-.7,1.6-1.6,1.6h-27.7c-1,0-2.2.4-2.7.9l-5.7,6.6c-.8.7-.5,2.1.6,2.1h42.3c4.4,0,8.1-3.6,8.1-8.2v-17c0-4.3-3.6-8-8.1-8h0ZM424.7,306.1l-25.5-29c-.6-.9-2.1-1.5-3.4-1.5h-13.3c-4.4,0-8.1,3.6-8.1,8v17c0,4.5,3.6,8.2,8.1,8.2h22.8c1.2,0,1.5-1.4.7-2.1l-5.8-6.6c-.5-.5-1.6-.9-2.7-.9h-8.2c-.9,0-1.6-.7-1.6-1.6,0,0,0,0,0,0v-11c0-.9,1.5-1.7,2.6-.4l18.8,21.5c.7.7,1.6,1,2.5,1.1h12.3c1.5,0,1.7-1.6.8-2.6h0ZM321.2,288.6h-23.1c-1,0-1.7-.8-1.7-1.7s.7-1.7,1.7-1.7h23.1c1,0,1.9-.9,1.9-1.9v-5.8c0-1-.9-1.9-1.9-1.9h-29.9c-4.5.1-8.2,3.7-8.2,8.1v10.3c0,1,.8,1.8,1.9,1.8h21c.9,0,1.7.8,1.7,1.7s-.8,1.7-1.7,1.7h-26.2c-1,0-1.9.8-1.9,1.9v5.8c0,1.1.9,1.9,1.9,1.9h35.1c4.5,0,8.2-3.6,8.2-8.1,0,0,0,0,0,0v-10.2c0-1-.8-1.8-1.9-1.8h0ZM430.3,277.8c-5.8,0-10.5,4.7-10.5,10.4s4.7,10.6,10.5,10.6,10.4-4.7,10.4-10.6-4.6-10.4-10.4-10.4Z"/>
  <g>
    <path class="st1" d="M361.7,376.5c-11,0-20,8.9-20,20s8.9,20,20,20,20-8.9,20-20c0-11-8.9-20-20-20ZM361.7,414.2c-9.8,0-17.7-7.9-17.7-17.7s7.9-17.7,17.7-17.7,17.7,7.9,17.7,17.7-7.9,17.7-17.7,17.7h0Z"/>
    <path class="st1" d="M376.2,404.5l-2.9-3.4c-.1-.2-.4-.2-.6-.1-.8.4-1.7,0-2.1-.7,0-.1,0-.2-.1-.4h0c-.2-1.1-.9-2.1-1.9-2.7l-1.3-.7,7.4-4.3-.9-1.6-8.3,4.8-1-.6v-1.2l8.3-4.8-.9-1.6-7.4,4.3v-1.5c0-1.1-.5-2.2-1.4-3-.6-.6-.7-1.5-.2-2.2,0-.1.2-.2.3-.3.2-.1.3-.4.2-.6l-1.5-4.2c0-.2-.2-.2-.4-.2,0,0-.2.1-.2.2l-1.5,4.2c0,.2,0,.4.2.6h0c.7.5.9,1.4.4,2.1,0,.1-.2.2-.3.3-.9.7-1.4,1.8-1.4,3v1.5l-7.4-4.3-.9,1.6,8.3,4.8v1.2l-1,.6-8.3-4.8-.9,1.6,7.4,4.3-1.3.7c-1,.6-1.7,1.5-1.9,2.7-.2.8-1,1.4-1.8,1.2-.1,0-.3,0-.4-.1-.2,0-.4,0-.6.1l-2.9,3.4c0,0-.1.2,0,.4,0,.1.2.2.3.1l4.4-.8c.2,0,.4-.2.4-.5,0-.8.8-1.5,1.7-1.4.1,0,.3,0,.4,0,1.1.4,2.3.3,3.3-.3l1.3-.7v8.5h1.8v-9.6l1-.6,1,.6v9.6h1.8v-8.5l1.3.7c1,.6,2.2.7,3.3.3.8-.3,1.7.1,2,.9,0,.1,0,.3,0,.4,0,.2.2.4.4.5l4.4.8c.1,0,.3,0,.3-.1,0-.1,0-.3,0-.4h0ZM358.9,399.3l-2.4,1.4c-.5.3-1.1.1-1.4-.4h0c-.3-.5-.1-1.1.4-1.4l2.4-1.4,1,.6v1.2h0ZM360.7,389.8c0-.6.4-1,1-1,.6,0,1,.4,1,1,0,0,0,0,0,0v2.8l-1,.6-1-.6v-2.8ZM362.9,397.1l-1.1.7-1.1-.7v-1.3l1.1-.7,1.1.7v1.3ZM368.4,400.3c-.3.5-.9.6-1.4.4l-2.4-1.4v-1.2l1-.6,2.4,1.4c.5.3.6.9.4,1.4Z"/>
    <path class="st1" d="M494.6,392.4h-6.7v-13.3h-6.1v34.7h6.1v-15.3h6.7v15.3h6.2v-34.7h-6.2v13.3ZM386.1,379.1l6.8,21.3v13.4h6.8v-14.1l7-20.6h-5.7l-4.6,13.5-4.2-13.5h-6.1ZM444.8,379.1l-2.9,16.5-3.4-16.5h-9.5v34.7h5.4v-26.2l4.6,22.8h5.1l4.1-23.1v26.6h6.4v-34.7h-9.9ZM519.4,379.1h-9.4l-6.3,34.7h5.6l1.3-8.1h7l1.3,8.1h6.2l-5.7-34.7ZM511.6,400l2.6-15.5,2.5,15.5h-5.1ZM463.8,379.1l-6.4,34.7h5.6l1.3-8.1h7l1.3,8.1h6.2l-5.7-34.7h-9.4ZM465.4,400l2.6-15.5,2.5,15.5h-5.1ZM411,379.1l-6.4,34.7h5.6l1.3-8.1h7l1.3,8.1h6.2l-5.7-34.7h-9.4ZM412.6,400l2.6-15.5,2.5,15.5h-5.1Z"/>
  </g>
  <g>
    <path class="st1" d="M-305.7,27.7c-1.4-4-3.4-8-5.9-11.7-14.2-20.6-41.4-27.4-63.7-17.1-.8.4-1.5.7-2.3,1.1-.4.2-.8.4-1.1.6-.6.3-1.1.6-1.7,1-.6.3-1.1.7-1.6,1-14.5,9.6-22.4,25.2-22.4,41.1,0,9.5,2.8,19.2,8.7,27.7.2.3.5.6.7,1,0,0,0,.1.1.2.2.3.5.6.7.9,0,0,0,0,0,0,.3.3.5.6.8,1,0,0,0,0,0,0,.3.3.5.6.8,1,0,0,0,0,0,0,.5.6,1.1,1.3,1.7,1.9,0,0,0,0,0,0,2.3,2.4,4.8,4.6,7.5,6.5,0,0,0,0,0,0,.6.5,1.3.9,2,1.3,0,0,0,0,0,0,.3.2.7.4,1,.6,0,0,0,0,0,0,.3.2.6.4.9.5,0,0,0,0,.1,0,.3.2.6.4.9.5,0,0,.1,0,.2.1.3.2.6.3.9.5,0,0,0,0,0,0,.3.2.6.3.9.4,0,0,.2,0,.3.1.3.1.6.3.9.4.1,0,.2,0,.3.1.2,0,.4.2.7.3.1,0,.2.1.4.2.3.1.5.2.8.3.1,0,.3.1.4.2.2,0,.4.1.5.2.2,0,.5.2.7.3.2,0,.3.1.5.2.2,0,.4.1.5.2.1,0,.3,0,.4.1.3.1.6.2.9.3.1,0,.2,0,.3,0,.7.2,1.3.4,2,.6,0,0,.1,0,.2,0,.5.1.9.2,1.4.3,0,0,0,0,0,0,.4,0,.8.2,1.1.2,0,0,.1,0,.2,0,.3,0,.7.1,1.1.2,0,0,.2,0,.3,0,.3,0,.7.1,1,.2,0,0,.2,0,.3,0,.3,0,.7,0,1,.1,0,0,.2,0,.3,0,.3,0,.6,0,.9,0,.1,0,.2,0,.3,0,.3,0,.6,0,.9,0,.1,0,.2,0,.3,0,.3,0,.6,0,1,0,.1,0,.2,0,.4,0,.3,0,.6,0,1,0,.1,0,.2,0,.3,0,.3,0,.7,0,1,0h0c.2,0,.4,0,.7,0,.2,0,.4,0,.5,0,.2,0,.4,0,.7,0,.2,0,.4,0,.6,0,.2,0,.4,0,.6,0,.2,0,.4,0,.6,0,.2,0,.4,0,.6,0,.2,0,.4,0,.6,0,.2,0,.4,0,.6,0,.2,0,.4,0,.6,0,.2,0,.4,0,.6,0,.2,0,.5,0,.7,0,.2,0,.3,0,.5,0,.4,0,.8-.1,1.2-.2,0,0,0,0,.1,0,.3,0,.5-.1.8-.2,0,0,0,0,0,0,.5-.1,1.1-.2,1.6-.3,0,0,.1,0,.2,0,.2,0,.4-.1.7-.2.1,0,.3,0,.4-.1.2,0,.4-.1.6-.2.2,0,.3,0,.5-.1.3,0,.6-.2.8-.2.2,0,.4-.1.7-.2.2,0,.3,0,.5-.2.2,0,.4-.1.6-.2.1,0,.3,0,.4-.1.3-.1.6-.2.9-.3,0,0,.1,0,.2,0,.3-.1.7-.3,1-.4,0,0,.2,0,.3-.1.3-.1.5-.2.8-.3,0,0,.2,0,.3-.1.7-.3,1.4-.6,2.1-1,0,0,.1,0,.2-.1.3-.1.6-.3.9-.4,0,0,.1,0,.2-.1.7-.4,1.4-.8,2.1-1.2,0,0,.1,0,.2-.1.3-.2.5-.3.8-.5,0,0,.2-.1.2-.2.3-.2.7-.4,1-.6,19.4-12.8,26.9-36.5,19.6-57.2ZM-347.2,54.7c1.1.8,1.4,1.9.8,3.4-1,2.4-3.7,4.2-7,4.2h-10.1s0,0,0,0c0,0-.2,0-.2-.2,0,0,0,0,0,0,0,0,0,0,0,0,0,0,0,0,0,0l5.7-14.2c0,0,.1-.1.2-.1h9.8c.3,0,.6,0,.9,0,.2,0,.4,0,.5.1.2,0,.5.2.7.3.1,0,.3.2.4.2.3.2.5.4.7.7,0,0,.1.2.2.3.2.4.3,1,.2,1.5,0,.3-.1.6-.3,1-.5,1.2-1.3,2.1-2.6,2.8ZM-329.1,55.9c-.7.3-1.4.5-2.2.7h0s0,0,0,0l2,5.5s0,0,0,0c0,0,0,0,0,.1,0,0,0,0,0,0h-3.8c-.1,0-.2,0-.2-.2l-.8-2.5-1-3h-3.6l-2.2,5.5c0,0-.1.2-.2.2h-3.3c0,0-.2,0-.2-.2h0c0,0,5.7-14.3,5.7-14.3,0,0,.1-.1.2-.1h9.5c.6,0,1.2,0,1.7.2,2.2.6,2.7,2.4,1.8,4.6-.7,1.6-1.6,2.7-3.1,3.4ZM-307.5,52.4c-1.2,3-3.6,4.3-7.1,4.3h-5.9l-2.1,5.4h0c0,0-.1.2-.2.2h0s-3.3,0-3.3,0c0,0-.2,0-.2-.2s0,0,0,0l5.7-14.2c0,0,.1-.1.2-.1h9.6c3.2,0,4.5,1.9,3.4,4.7ZM-323.3,41.8c-.6-8.5-4.8-16.1-11.2-21.2-5.2-4.2-11.9-6.6-19.2-6.6s0,0,0,0,0,0,0,0c0,0-.1,0-.2,0-6.7,0-13,2.2-18,5.9-7.4,5.4-12.2,14.1-12.2,23.8s.8,7.6,2.1,11c2.3,5.8,6.5,10.6,11.7,14h0s0,0,0,0l-6.6,15.5c-14.5-7.9-24.3-23.1-24.3-40.5s.2-4.5.5-6.7c0,0,0,0,0,0,0,0,0,0,0,0,6.5.5,12.9.2,13.7-2.6,0,0,0-.2,0-.3.4-2.8-4.6-6.2-10.2-9,2.4-5.4,5.8-10.2,10.1-14.3,0,0,0,0,0,0,0,0,0,0,0,0,4.9,4.2,10.2,7.7,12.6,5.9.8-.5,1.1-1.5,1.1-2.7,0-2.7-1.5-6.8-3.5-10.7,5.1-2.8,10.8-4.7,16.8-5.5,0,0,0,0,0,0,0,0,0,0,0,0,1.3,6.2,3.4,12.1,6.4,12.1s3.5-2.5,4.7-5.9c.7-1.9,1.2-4.1,1.7-6.3,5.8.8,11.2,2.5,16.1,5.1,0,0,0,0,0,.1,0,0,0,0,0-.1-2.7,5.8-4.6,11.8-2.1,13.5.9.6,2.2.5,3.8,0,2.5-1,5.7-3.4,8.7-6.1,4.1,3.8,7.5,8.4,9.9,13.4,0,0,0,0,0,0,0,0,0,0,0,0-5.7,3.1-10.8,6.9-9.8,9.7.9,2.8,7.3,2.9,13.8,2.2,0,0,0,0,0,0,0,0,0,0,.1,0,.4,2.1.6,4.2.7,6.3h-17Z"/>
    <path class="st1" d="M-349.3,50.7h-6l-1.2,3.1h0,0s6.1,0,6.1,0c.8,0,1.7-.7,2.1-1.6,0-.2.1-.4.1-.6,0-.5-.4-.9-1.1-.9Z"/>
    <path class="st1" d="M-312.3,50.7h-5.8l-1.2,3.1h5.8c.1,0,.3,0,.4,0,.1,0,.3,0,.4,0,.2,0,.4-.1.5-.2.1,0,.2-.1.3-.2.3-.3.6-.6.8-1,.4-1,0-1.6-1.2-1.6Z"/>
    <path class="st1" d="M-330.8,50.7h-5.8l-1.2,3h5.8c.6,0,1.1-.1,1.5-.4.1,0,.2-.1.3-.2,0,0,.2-.2.3-.2,0,0,.1-.2.2-.3,0,0,0-.1,0-.2s0-.1,0-.2c0,0,0-.1,0-.2s0-.1,0-.2c0-.1,0-.2,0-.3,0,0,0-.2,0-.3-.1-.4-.6-.6-1.3-.6Z"/>
    <path class="st1" d="M-351.2,55.9h-6.1l-1.3,3.3h6.1c1.4,0,2.3-.6,2.7-1.6.4-1-.1-1.7-1.4-1.7Z"/>
  </g>
  <g>
    <path class="st1" d="M-198.9,217.4l-5.6,9.9-1.3-9.9h-4s-2.9,13.6-2.9,13.6h2.5s2.3-11.2,2.3-11.2l1.2,11.2h2.5s6-10.8,6-10.8l-2.3,10.8c1.1.1,1.8.1,2.7,0l2.9-13.6h-4Z"/>
    <polygon class="st1" points="-169.3 227.4 -173.7 217.4 -177 217.5 -179.9 231.1 -177.3 231 -175 220.3 -170.7 231.1 -167.6 231.1 -164.7 217.5 -167.3 217.4 -169.3 227.4"/>
    <path class="st1" d="M-233.9,217.1c-2.7,0-5.2.8-6.8,3-1.5,2.1-2.1,4.8-1.4,7.2.7,2.6,3.1,4,5.7,4,2.8,0,5.4-1,6.9-3.4,1.2-1.8,1.5-4,1.2-6-.4-2.9-2.8-4.7-5.8-4.8ZM-231.9,226.9c-.9,1.6-2.6,2.5-4.6,2.2-1.3-.2-2.2-.9-2.6-2.1-.6-1.9-.3-3.9.8-5.6,1.1-1.7,3-2.5,5-1.9,2.9.8,2.9,4.9,1.4,7.4Z"/>
    <path class="st1" d="M-216.7,217.5h-7.1c0,0-2.9,13.6-2.9,13.6h2.7s1.2-5.5,1.2-5.5h4.1c.3,0,.9.3,1,.5.2.2.3.9.2,1.2l-.5,3.8h2.7s.5-3.6.5-3.6c.1-1.1,0-2.2-1.1-2.9,1.9-.6,2.9-2.2,2.7-4-.2-1.6-1.6-3-3.5-3ZM-216.4,222.4c-.2.4-1,1-1.7,1h-4.3c0,0,.8-3.7.8-3.7h3.6c.5,0,1.3.3,1.6.7.5.6.4,1.5,0,2.1Z"/>
    <path class="st1" d="M-92.9,217.5h-6.9s-2.9,13.6-2.9,13.6h2.7s1.1-5.5,1.1-5.5h4c.4,0,.9.2,1.1.5.2.2.3.9.2,1.2l-.5,3.8h2.7s.5-3.8.5-3.8c.1-1.1-.1-2.1-1.1-2.7,1.4-.4,2.3-1.3,2.6-2.5.3-1.3.1-2.5-.8-3.5-.7-.6-1.8-1.1-2.8-1.1ZM-92.3,222.2c-.2.5-1,1.1-1.7,1.1h-4.4c0,.1.8-3.7.8-3.7h3.5c.4,0,1.2.2,1.5.5.7.6.7,1.5.4,2.1Z"/>
    <path class="st1" d="M-260.1,217.5h-7.2c0,0-2.9,13.5-2.9,13.5h2.7c0,0,1.2-5.4,1.2-5.4h4c.4,0,.9.3,1.1.5.2.2.2.8.2,1.2l-.5,3.8h2.8s.5-3.6.5-3.6c.1-1.1,0-2.2-1.1-2.9,1.9-.6,2.9-2.1,2.7-3.9-.1-1.6-1.5-3.1-3.4-3.1ZM-259.7,222.3c-.8,1.6-3.7,1.1-6.1,1.2l.8-3.8h3.5c.5,0,1.3.2,1.7.7.5.5.4,1.5.1,2Z"/>
    <polygon class="st1" points="-270.6 219.7 -270.1 217.4 -280.6 217.5 -283.4 231.1 -272.6 231.1 -271.8 228.8 -280.3 228.8 -279.5 225.1 -272.1 225.1 -271.6 222.8 -279 222.8 -278.4 219.7 -270.6 219.7"/>
    <polygon class="st1" points="-149.1 231.1 -138.3 231.1 -137.5 228.8 -146 228.8 -145.2 225.1 -137.8 225.1 -137.3 222.8 -144.7 222.8 -144 219.7 -136.3 219.7 -135.8 217.4 -146.2 217.4 -149.1 231.1"/>
    <path class="st1" d="M-66.7,219.6c.6.3,1,.9,1.2,1.5h2.7c0-1.4-.9-2.8-2.3-3.4-2-.8-4.5-.9-6.5,0-2,.8-3.1,3.1-2.1,5,.4.8,1.5,1.4,2.3,1.7l3.8,1.2c.8.2,1.3.9,1.3,1.6,0,.7-.4,1.3-1.1,1.6-2.1.9-5.1.4-5.6-1.9h-2.7c0,2.1,1.5,3.7,3.5,4.2,2.1.5,4.6.4,6.6-.6,2.1-1.1,2.9-4,1.3-5.8-2.1-2.3-7.7-1.6-6.9-4.1.4-1.4,2.7-1.7,4.5-1Z"/>
    <path class="st1" d="M-110.5,217.5l-8.2,13.6h2.9s2.2-3.5,2.2-3.5h5.9s.7,3.5.7,3.5h2.8s-2.7-13.6-2.7-13.6h-3.5ZM-112.4,225.3l3.2-5.8,1,5.8h-4.2Z"/>
    <path class="st1" d="M-187.6,217.4l-8.2,13.6c1,.1,2.1.1,3,0l2.1-3.4h5.8s.7,3.5.7,3.5h2.8s-2.7-13.7-2.7-13.7h-3.5ZM-189.5,225.3l3.2-5.7,1,5.7h-4.2Z"/>
    <path class="st1" d="M-116.7,221.7c.2-2.2-1.4-4.2-3.7-4.2h-6.9c0,0-2.9,13.6-2.9,13.6h2.7s1-5,1-5h4.1c1,0,2-.2,2.8-.5,1.7-.7,2.8-2.1,2.8-3.9ZM-119.7,222.6c-.2.6-1.1,1.2-2,1.2h-4.3c0,0,.9-4.3.9-4.3h3.2c.6,0,1.4.2,1.8.6.7.7.6,1.6.3,2.4Z"/>
    <path class="st1" d="M-287.8,217.5h-6.9c0,0-2.9,13.6-2.9,13.6h2.7s1-4.9,1-4.9h4.2c1.3,0,2.4-.4,3.5-.8,1.3-.8,2-2,2.1-3.6.2-2.2-1.4-4.2-3.7-4.2ZM-287,222.5c-.2.7-1.1,1.4-2,1.4h-4.4c0,.1.9-4.2.9-4.2h3.2c.4,0,1.3.2,1.6.5.9.6.9,1.6.6,2.4Z"/>
    <path class="st1" d="M-154.5,219.6c1,.4,1.6,1.3,1.7,2.3h2.9c0-2.2-1.5-3.9-3.7-4.5-2.7-.7-5.5-.1-7.5,1.8-2.2,2.2-3,5.4-2.2,8.4.5,2,2.1,3.2,4.1,3.6,3.7.7,7.4-.7,8.5-4.4h-2.9c-.6,1.6-2,2.4-3.7,2.4-1.6,0-2.7-.9-3.1-2.3-.4-1.8-.1-3.7.8-5.4,1-1.8,3.1-2.6,5-1.9Z"/>
    <polygon class="st1" points="-255.8 231.1 -253.1 231.1 -251.9 225.5 -244.7 225.5 -244.3 223.2 -251.4 223.2 -250.7 219.7 -243 219.7 -242.5 217.4 -252.9 217.4 -255.8 231.1"/>
    <path class="st1" d="M-75.2,217.4h-12.1s-.5,2.2-.5,2.2h4.7s-2.4,11.4-2.4,11.4c.9,0,1.9.1,2.8,0l2.4-11.3h4.7s.5-2.2.5-2.2Z"/>
    <polygon class="st1" points="-177.1 151.4 -179.9 157.1 -183.1 163.5 -186.1 169.6 -189.2 175.9 -191.3 180.1 -180.3 185.5 -166.4 192.3 -170.9 199.2 -291.6 199.2 -298 212.7 -155.7 212.7 -139.6 183 -166.3 169.9 -163.7 164.7 -157.3 164.8 -95.4 164.9 -39.9 165 -32.9 152.3 -32.5 151.4 -177.1 151.4"/>
    <polygon class="st1" points="-262.1 191.3 -252.9 186.9 -244 182.5 -241.2 181.3 -237.3 185 -232.7 189.4 -228.2 193.8 -206.4 193.8 -205.3 191.5 -202.6 186 -200 180.7 -197.5 175.6 -194.7 169.9 -192.1 164.8 -189.5 159.5 -187.1 154.5 -186 152.2 -185.6 151.4 -206.9 151.4 -214.5 166.2 -218.8 174.8 -220.9 172.9 -223.3 170.7 -225.7 168.5 -228.1 166.4 -230.4 164.2 -231.9 162.9 -258.5 174.5 -257 171.4 -253.8 164.8 -250.6 158.5 -247.4 152.1 -247.1 151.4 -269 151.4 -289.6 193.8 -267.3 193.8 -262.1 191.3"/>
    <polygon class="st1" points="-64.3 170.1 -67.9 171.8 -80.7 178 -90.2 182.7 -91.8 181.3 -95.6 177.6 -99.7 173.8 -103.6 170.1 -123.3 170.1 -125.2 170.2 -126.3 172.4 -128.3 176.5 -130.5 181.1 -132.7 185.6 -135 190.2 -137.2 194.7 -139.4 199.3 -141.6 203.8 -143.9 208.5 -146 212.7 -124.5 212.7 -119.4 202.4 -112.7 189.2 -111.1 190.7 -108.9 192.6 -106.7 194.6 -104.5 196.7 -102.3 198.7 -99.7 201.1 -73.1 189.3 -74.6 192.6 -77.3 198 -79.9 203.4 -82.6 208.9 -84.4 212.5 -62.5 212.5 -42 170 -45.4 170 -64.3 170.1"/>
  </g>
</svg>